# xmcd
#
# Track frame offsets: 
#        150
#        3702
#        17312
#        39142
#        51470
#        68665
#        83547
#        100670
#        138927
#        153225
#        165085
#        176237
#        214560
#
# Disc length: 3280 seconds
#
# Revision: 5
# Processed by: cddbd v1.5.2PL0 Copyright (c) Steve Scherf et al.
# Submitted via: ExactAudioCopy v0.95b4
#
DISCID=8f0cce0d
DTITLE=Royal Crown Revue - Caught In The Act
DYEAR=1997
DGENRE=Swing
TTITLE0=Intro
TTITLE1=Barflies at the beach
TTITLE2=Boogie After Midnight
TTITLE3=Something's Gotta Give
TTITLE4=Honey Child
TTITLE5=Park's Place
TTITLE6=The Mooch
TTITLE7=Hey pachuco
TTITLE8=Who Dat
TTITLE9=Mousetrap
TTITLE10=Datin' with no Dough
TTITLE11=Hot Rod
TTITLE12=Poppity Pop Goes the Motorcycle
EXTD=
EXTT0=
EXTT1=
EXTT2=
EXTT3=
EXTT4=
EXTT5=
EXTT6=
EXTT7=
EXTT8=
EXTT9=
EXTT10=
EXTT11=
EXTT12=
PLAYORDER=
